<svg xmlns="http://www.w3.org/2000/svg" xmlns:svg="http://www.w3.org/2000/svg" id="svg12" width="100" height="100" version="1.1" viewBox="0 0 100 100"><metadata id="metadata18"/><title id="title2">Letter Copy 4</title><desc id="desc4">Created with Sketch.</desc><path style="fill:#202ce0;fill-rule:evenodd;stroke:none;stroke-width:1" id="Fill-12" d="m 87.046565,33.686483 v 10.552099 l -30.510561,-17.614885 13.53378,-7.813995 12.581301,7.263613 c 2.71138,1.565204 4.39548,4.482316 4.39548,7.613168 z m -74.093131,22.074936 30.51012,17.615331 -13.53334,7.813995 -12.58174,-7.264058 c -2.71094,-1.564759 -4.39504,-4.482316 -4.39504,-7.613168 z m 20.06978,4.04014 V 43.972297 l 30.68512,17.716413 -13.67627,7.932888 z m 16.97679,-29.404453 16.97678,9.801336 V 56.02815 L 36.291664,38.311738 Z m 0,-21.810877 c 1.54516,0 3.06494,0.406106 4.39548,1.173791 l 9.13785,5.276272 -30.51056,17.615331 -0.0325,-15.608842 12.61425,-7.282761 c 1.33054,-0.767684 2.85032,-1.173791 4.39549,-1.173791 z m -32.65153,17.487531 9.13829,-5.275827 V 56.02815 L 12.953434,48.251559 V 33.686483 c 0,-3.130852 1.6841,-6.047964 4.39504,-7.612723 z m 49.66081,56.883465 -12.6138,7.2832 c -1.33098,0.76813 -2.85121,1.1738 -4.39548,1.1738 -1.54472,0 -3.06451,-0.40567 -4.39549,-1.1738 l -9.13829,-5.27627 30.511,-17.615331 z m 15.641801,-9.030538 -9.138741,5.275828 V 43.971852 l 13.534221,7.777036 v 14.564631 c 0,3.130852 -1.6841,6.048409 -4.39548,7.613168 z m 3.443,-53.816285 L 57.838044,3.796661 c -2.37163,-1.36972 -5.08213,-2.093766 -7.83804,-2.093766 -2.75592,0 -5.46642,0.724046 -7.83849,2.093766 L 13.905474,20.110402 C 9.0709247,22.901941 6.0674247,28.104295 6.0674247,33.686483 v 32.627036 c 0,5.583079 3.0035,10.784987 7.8380493,13.576526 l 28.25604,16.31374 c 2.37252,1.36972 5.08302,2.09332 7.83849,2.09332 2.75502,0 5.46596,-0.7236 7.83804,-2.09332 l 28.256041,-16.31374 c 4.83499,-2.791539 7.83849,-7.993447 7.83849,-13.576526 V 33.686483 c 0,-5.582634 -3.0035,-10.784987 -7.83849,-13.576081 z"/></svg>